<svg width="23" height="28" viewBox="0 0 23 28" fill="none" xmlns="http://www.w3.org/2000/svg">
<path fill-rule="evenodd" clip-rule="evenodd" d="M3.26456 0.1568C2.10019 0.3052 1.48494 0.5782 1.04506 0.9968C0.606625 1.4168 0.320562 2.0048 0.163875 3.115C0.00287477 4.2588 0 5.7736 0 7.945V19.943C0.568823 19.5638 1.20051 19.283 1.86731 19.1128C2.62631 18.9182 3.51181 18.9182 4.80988 18.9196H23V7.9464C23 5.7736 22.9971 4.2588 22.8361 3.115C22.6794 2.0048 22.3934 1.4168 21.9549 0.9968C21.5151 0.5782 20.8998 0.3052 19.7354 0.1568C18.5366 0.00279998 16.9496 0 14.6726 0H8.32744C6.05044 0 4.46344 0.00279998 3.26456 0.1568ZM3.96606 6.433C3.96606 5.8058 4.49794 5.2976 5.15487 5.2976H17.8451C18.157 5.29498 18.4573 5.41286 18.6801 5.62541C18.9029 5.83796 19.0301 6.12786 19.0339 6.4316C19.0305 6.73558 18.9034 7.02584 18.6806 7.23869C18.4577 7.45154 18.1573 7.56961 17.8451 7.567H5.15487C4.84299 7.56962 4.54275 7.45174 4.31992 7.23919C4.0971 7.02664 3.96985 6.73674 3.96606 6.433ZM5.15487 10.5952C4.84299 10.5926 4.54275 10.7105 4.31992 10.923C4.0971 11.1356 3.96985 11.4255 3.96606 11.7292C3.96606 12.3564 4.49794 12.8646 5.15487 12.8646H13.0856C13.3977 12.8676 13.6983 12.7499 13.9214 12.5373C14.1446 12.3247 14.272 12.0346 14.2758 11.7306C14.2724 11.4264 14.1451 11.1359 13.9219 10.923C13.6988 10.7101 13.3979 10.5922 13.0856 10.5952H5.15487Z" fill="#C9DFC9"/>
<path d="M4.9924 21.189H23C22.9957 22.771 22.9698 23.9526 22.8375 24.885C22.6808 25.9952 22.3948 26.5832 21.9563 27.0032C21.5165 27.4218 20.9012 27.6948 19.7368 27.8432C18.538 27.9972 16.951 28 14.674 28H8.3274C6.0504 28 4.4634 27.9972 3.26453 27.8446C2.10015 27.6948 1.4849 27.4218 1.04503 27.0032C0.606591 26.5832 0.320528 25.9952 0.16384 24.885C0.104903 24.465 0.0660908 23.9932 0.0430908 23.457C0.240551 22.9329 0.565694 22.4632 0.990598 22.0884C1.4155 21.7136 1.92747 21.4449 2.48253 21.3052C2.8994 21.1988 3.44134 21.189 4.9924 21.189Z" fill="#C9DFC9"/>
</svg>
