<svg width="31" height="30" viewBox="0 0 31 30" fill="none" xmlns="http://www.w3.org/2000/svg">
<path d="M1 10V5C1 3.93913 1.43648 2.92172 2.21341 2.17157C2.99035 1.42143 4.0441 1 5.14286 1H10.3214M20.6786 1H25.8571C26.9559 1 28.0096 1.42143 28.7866 2.17157C29.5635 2.92172 30 3.93913 30 5V10M1 20V25C1 26.0609 1.43648 27.0783 2.21341 27.8284C2.99035 28.5786 4.0441 29 5.14286 29H10.3214M30 20V25C30 26.0609 29.5635 27.0783 28.7866 27.8284C28.0096 28.5786 26.9559 29 25.8571 29H20.6786M4.10714 15H26.8929" stroke="#C9DFC9" stroke-width="2"/>
</svg>
