<svg width="29" height="28" viewBox="0 0 29 28" fill="none" xmlns="http://www.w3.org/2000/svg">
<path fill-rule="evenodd" clip-rule="evenodd" d="M8.05556 6.22222C8.05556 4.57199 8.73452 2.98934 9.94309 1.82245C11.1517 0.655553 12.7908 0 14.5 0C16.2092 0 17.8483 0.655553 19.0569 1.82245C20.2655 2.98934 20.9444 4.57199 20.9444 6.22222C20.9444 7.87246 20.2655 9.4551 19.0569 10.622C17.8483 11.7889 16.2092 12.4444 14.5 12.4444C12.7908 12.4444 11.1517 11.7889 9.94309 10.622C8.73452 9.4551 8.05556 7.87246 8.05556 6.22222ZM8.05556 15.5556C5.91909 15.5556 3.87013 16.375 2.35942 17.8336C0.848708 19.2922 0 21.2705 0 23.3333C0 24.571 0.509225 25.758 1.41565 26.6332C2.32208 27.5083 3.55145 28 4.83333 28H24.1667C25.4485 28 26.6779 27.5083 27.5844 26.6332C28.4908 25.758 29 24.571 29 23.3333C29 21.2705 28.1513 19.2922 26.6406 17.8336C25.1299 16.375 23.0809 15.5556 20.9444 15.5556H8.05556Z" fill="#D7DFC9"/>
</svg>
