<svg xmlns="http://www.w3.org/2000/svg" xmlns:xlink="http://www.w3.org/1999/xlink" width="500" zoomAndPan="magnify" viewBox="0 0 375 374.999991" height="500" preserveAspectRatio="xMidYMid meet" version="1.0"><defs><filter x="0%" y="0%" width="100%" height="100%" id="a8dabf8910"><feColorMatrix values="0 0 0 0 1 0 0 0 0 1 0 0 0 0 1 0 0 0 1 0" color-interpolation-filters="sRGB"/></filter><mask id="8b762b4e57"><g filter="url(#a8dabf8910)"><rect x="-37.5" width="450" fill="#000000" y="-37.499999" height="449.999989" fill-opacity="0.9"/></g></mask><clipPath id="b0a3e529bf"><path d="M 0.835938 0.835938 L 189.835938 0.835938 L 189.835938 189.835938 L 0.835938 189.835938 Z M 0.835938 0.835938 " clip-rule="nonzero"/></clipPath><clipPath id="bd5e92bc83"><rect x="0" width="190" y="0" height="190"/></clipPath><clipPath id="4f1783e37c"><path d="M 112.675781 153 L 262.675781 153 L 262.675781 242 L 112.675781 242 Z M 112.675781 153 " clip-rule="nonzero"/></clipPath></defs><g mask="url(#8b762b4e57)"><g transform="matrix(1, 0, 0, 1, 92, 92)"><g clip-path="url(#bd5e92bc83)"><g clip-path="url(#b0a3e529bf)"><path fill="#005400" d="M 68.335938 7.585938 C 68.335938 8.03125 68.292969 8.46875 68.207031 8.902344 C 68.121094 9.339844 67.992188 9.761719 67.824219 10.171875 C 67.652344 10.578125 67.445312 10.96875 67.199219 11.335938 C 66.953125 11.707031 66.671875 12.046875 66.359375 12.359375 C 66.046875 12.671875 65.707031 12.953125 65.335938 13.199219 C 64.96875 13.445312 64.578125 13.652344 64.171875 13.824219 C 63.761719 13.992188 63.339844 14.121094 62.902344 14.207031 C 62.46875 14.292969 62.03125 14.335938 61.585938 14.335938 L 21.085938 14.335938 C 20.644531 14.335938 20.203125 14.378906 19.769531 14.464844 C 19.335938 14.554688 18.914062 14.679688 18.503906 14.851562 C 18.09375 15.019531 17.707031 15.226562 17.335938 15.472656 C 16.96875 15.722656 16.628906 16 16.3125 16.3125 C 16 16.628906 15.722656 16.96875 15.472656 17.335938 C 15.226562 17.707031 15.019531 18.09375 14.851562 18.503906 C 14.679688 18.914062 14.554688 19.335938 14.464844 19.769531 C 14.378906 20.203125 14.335938 20.644531 14.335938 21.085938 L 14.335938 61.585938 C 14.335938 62.03125 14.292969 62.46875 14.207031 62.902344 C 14.121094 63.339844 13.992188 63.761719 13.824219 64.171875 C 13.652344 64.578125 13.445312 64.96875 13.199219 65.335938 C 12.953125 65.707031 12.671875 66.046875 12.359375 66.359375 C 12.046875 66.671875 11.707031 66.953125 11.335938 67.199219 C 10.96875 67.445312 10.578125 67.652344 10.171875 67.824219 C 9.761719 67.992188 9.339844 68.121094 8.902344 68.207031 C 8.46875 68.292969 8.03125 68.335938 7.585938 68.335938 C 7.144531 68.335938 6.703125 68.292969 6.269531 68.207031 C 5.835938 68.121094 5.414062 67.992188 5.003906 67.824219 C 4.59375 67.652344 4.207031 67.445312 3.835938 67.199219 C 3.46875 66.953125 3.128906 66.671875 2.8125 66.359375 C 2.5 66.046875 2.222656 65.707031 1.972656 65.335938 C 1.726562 64.96875 1.519531 64.578125 1.351562 64.171875 C 1.179688 63.761719 1.054688 63.339844 0.964844 62.902344 C 0.878906 62.46875 0.835938 62.03125 0.835938 61.585938 L 0.835938 21.085938 C 0.835938 20.421875 0.871094 19.761719 0.933594 19.101562 C 1 18.441406 1.097656 17.785156 1.226562 17.136719 C 1.355469 16.484375 1.515625 15.84375 1.707031 15.207031 C 1.902344 14.574219 2.125 13.949219 2.378906 13.335938 C 2.632812 12.726562 2.914062 12.125 3.226562 11.542969 C 3.539062 10.957031 3.882812 10.386719 4.25 9.835938 C 4.617188 9.285156 5.011719 8.753906 5.433594 8.242188 C 5.855469 7.726562 6.300781 7.238281 6.769531 6.769531 C 7.238281 6.300781 7.726562 5.855469 8.242188 5.433594 C 8.753906 5.011719 9.285156 4.617188 9.835938 4.25 C 10.386719 3.882812 10.957031 3.539062 11.542969 3.226562 C 12.125 2.914062 12.726562 2.632812 13.335938 2.378906 C 13.949219 2.125 14.574219 1.902344 15.207031 1.707031 C 15.84375 1.515625 16.484375 1.355469 17.136719 1.226562 C 17.785156 1.097656 18.441406 1 19.101562 0.933594 C 19.761719 0.871094 20.421875 0.835938 21.085938 0.835938 L 61.585938 0.835938 C 62.03125 0.835938 62.46875 0.878906 62.902344 0.964844 C 63.339844 1.054688 63.761719 1.179688 64.171875 1.351562 C 64.578125 1.519531 64.96875 1.726562 65.335938 1.972656 C 65.707031 2.222656 66.046875 2.5 66.359375 2.8125 C 66.671875 3.128906 66.953125 3.46875 67.199219 3.835938 C 67.445312 4.207031 67.652344 4.59375 67.824219 5.003906 C 67.992188 5.414062 68.121094 5.835938 68.207031 6.269531 C 68.292969 6.703125 68.335938 7.144531 68.335938 7.585938 Z M 169.585938 0.835938 L 129.085938 0.835938 C 128.644531 0.835938 128.203125 0.878906 127.769531 0.964844 C 127.335938 1.054688 126.914062 1.179688 126.503906 1.351562 C 126.09375 1.519531 125.707031 1.726562 125.335938 1.972656 C 124.96875 2.222656 124.628906 2.5 124.3125 2.8125 C 124 3.128906 123.722656 3.46875 123.472656 3.835938 C 123.226562 4.207031 123.019531 4.59375 122.851562 5.003906 C 122.679688 5.414062 122.554688 5.835938 122.464844 6.269531 C 122.378906 6.703125 122.335938 7.144531 122.335938 7.585938 C 122.335938 8.03125 122.378906 8.46875 122.464844 8.902344 C 122.554688 9.339844 122.679688 9.761719 122.851562 10.171875 C 123.019531 10.578125 123.226562 10.96875 123.472656 11.335938 C 123.722656 11.707031 124 12.046875 124.3125 12.359375 C 124.628906 12.671875 124.96875 12.953125 125.335938 13.199219 C 125.707031 13.445312 126.09375 13.652344 126.503906 13.824219 C 126.914062 13.992188 127.335938 14.121094 127.769531 14.207031 C 128.203125 14.292969 128.644531 14.335938 129.085938 14.335938 L 169.585938 14.335938 C 170.03125 14.335938 170.46875 14.378906 170.902344 14.464844 C 171.339844 14.554688 171.761719 14.679688 172.171875 14.851562 C 172.578125 15.019531 172.96875 15.226562 173.335938 15.472656 C 173.707031 15.722656 174.046875 16 174.359375 16.3125 C 174.671875 16.628906 174.953125 16.96875 175.199219 17.335938 C 175.445312 17.707031 175.652344 18.09375 175.824219 18.503906 C 175.992188 18.914062 176.121094 19.335938 176.207031 19.769531 C 176.292969 20.203125 176.335938 20.644531 176.335938 21.085938 L 176.335938 61.585938 C 176.335938 62.03125 176.378906 62.46875 176.464844 62.902344 C 176.554688 63.339844 176.679688 63.761719 176.851562 64.171875 C 177.019531 64.578125 177.226562 64.96875 177.472656 65.335938 C 177.722656 65.707031 178 66.046875 178.3125 66.359375 C 178.628906 66.671875 178.96875 66.953125 179.335938 67.199219 C 179.707031 67.445312 180.09375 67.652344 180.503906 67.824219 C 180.914062 67.992188 181.335938 68.121094 181.769531 68.207031 C 182.203125 68.292969 182.644531 68.335938 183.085938 68.335938 C 183.53125 68.335938 183.96875 68.292969 184.402344 68.207031 C 184.839844 68.121094 185.261719 67.992188 185.671875 67.824219 C 186.078125 67.652344 186.46875 67.445312 186.835938 67.199219 C 187.207031 66.953125 187.546875 66.671875 187.859375 66.359375 C 188.171875 66.046875 188.453125 65.707031 188.699219 65.335938 C 188.945312 64.96875 189.152344 64.578125 189.324219 64.171875 C 189.492188 63.761719 189.621094 63.339844 189.707031 62.902344 C 189.792969 62.46875 189.835938 62.03125 189.835938 61.585938 L 189.835938 21.085938 C 189.835938 20.421875 189.804688 19.761719 189.738281 19.101562 C 189.675781 18.441406 189.578125 17.785156 189.449219 17.136719 C 189.320312 16.484375 189.15625 15.84375 188.964844 15.207031 C 188.773438 14.574219 188.550781 13.949219 188.296875 13.335938 C 188.042969 12.726562 187.757812 12.125 187.445312 11.542969 C 187.132812 10.957031 186.792969 10.386719 186.425781 9.835938 C 186.054688 9.285156 185.660156 8.753906 185.242188 8.242188 C 184.820312 7.726562 184.375 7.238281 183.90625 6.769531 C 183.4375 6.300781 182.945312 5.855469 182.433594 5.433594 C 181.921875 5.011719 181.390625 4.617188 180.835938 4.25 C 180.285156 3.882812 179.71875 3.539062 179.132812 3.226562 C 178.546875 2.914062 177.949219 2.632812 177.335938 2.378906 C 176.722656 2.125 176.101562 1.902344 175.464844 1.707031 C 174.832031 1.515625 174.1875 1.355469 173.539062 1.226562 C 172.886719 1.097656 172.230469 1 171.570312 0.933594 C 170.910156 0.871094 170.25 0.835938 169.585938 0.835938 Z M 61.585938 176.335938 L 21.085938 176.335938 C 20.644531 176.335938 20.203125 176.292969 19.769531 176.207031 C 19.335938 176.121094 18.914062 175.992188 18.503906 175.824219 C 18.09375 175.652344 17.707031 175.445312 17.335938 175.199219 C 16.96875 174.953125 16.628906 174.671875 16.3125 174.359375 C 16 174.046875 15.722656 173.707031 15.472656 173.335938 C 15.226562 172.96875 15.019531 172.578125 14.851562 172.171875 C 14.679688 171.761719 14.554688 171.339844 14.464844 170.902344 C 14.378906 170.46875 14.335938 170.03125 14.335938 169.585938 L 14.335938 129.085938 C 14.335938 128.644531 14.292969 128.203125 14.207031 127.769531 C 14.121094 127.335938 13.992188 126.914062 13.824219 126.503906 C 13.652344 126.09375 13.445312 125.707031 13.199219 125.335938 C 12.953125 124.96875 12.671875 124.628906 12.359375 124.3125 C 12.046875 124 11.707031 123.722656 11.335938 123.472656 C 10.96875 123.226562 10.578125 123.019531 10.171875 122.851562 C 9.761719 122.679688 9.339844 122.554688 8.902344 122.464844 C 8.46875 122.378906 8.03125 122.335938 7.585938 122.335938 C 7.144531 122.335938 6.703125 122.378906 6.269531 122.464844 C 5.835938 122.554688 5.414062 122.679688 5.003906 122.851562 C 4.59375 123.019531 4.207031 123.226562 3.835938 123.472656 C 3.46875 123.722656 3.128906 124 2.8125 124.3125 C 2.5 124.628906 2.222656 124.96875 1.972656 125.335938 C 1.726562 125.707031 1.519531 126.09375 1.351562 126.503906 C 1.179688 126.914062 1.054688 127.335938 0.964844 127.769531 C 0.878906 128.203125 0.835938 128.644531 0.835938 129.085938 L 0.835938 169.585938 C 0.835938 170.25 0.871094 170.910156 0.933594 171.570312 C 1 172.230469 1.097656 172.886719 1.226562 173.539062 C 1.355469 174.1875 1.515625 174.832031 1.707031 175.464844 C 1.902344 176.101562 2.125 176.722656 2.378906 177.335938 C 2.632812 177.949219 2.914062 178.546875 3.226562 179.132812 C 3.539062 179.71875 3.882812 180.285156 4.25 180.835938 C 4.617188 181.390625 5.011719 181.921875 5.433594 182.433594 C 5.855469 182.945312 6.300781 183.4375 6.769531 183.90625 C 7.238281 184.375 7.726562 184.820312 8.242188 185.242188 C 8.753906 185.660156 9.285156 186.054688 9.835938 186.425781 C 10.386719 186.792969 10.957031 187.132812 11.542969 187.445312 C 12.125 187.757812 12.726562 188.042969 13.335938 188.296875 C 13.949219 188.550781 14.574219 188.773438 15.207031 188.964844 C 15.84375 189.15625 16.484375 189.320312 17.136719 189.449219 C 17.785156 189.578125 18.441406 189.675781 19.101562 189.738281 C 19.761719 189.804688 20.421875 189.835938 21.085938 189.835938 L 61.585938 189.835938 C 62.03125 189.835938 62.46875 189.792969 62.902344 189.707031 C 63.339844 189.621094 63.761719 189.492188 64.171875 189.324219 C 64.578125 189.152344 64.96875 188.945312 65.335938 188.699219 C 65.707031 188.453125 66.046875 188.171875 66.359375 187.859375 C 66.671875 187.546875 66.953125 187.207031 67.199219 186.835938 C 67.445312 186.46875 67.652344 186.078125 67.824219 185.671875 C 67.992188 185.261719 68.121094 184.839844 68.207031 184.402344 C 68.292969 183.96875 68.335938 183.53125 68.335938 183.085938 C 68.335938 182.644531 68.292969 182.203125 68.207031 181.769531 C 68.121094 181.335938 67.992188 180.914062 67.824219 180.503906 C 67.652344 180.09375 67.445312 179.707031 67.199219 179.335938 C 66.953125 178.96875 66.671875 178.628906 66.359375 178.3125 C 66.046875 178 65.707031 177.722656 65.335938 177.472656 C 64.96875 177.226562 64.578125 177.019531 64.171875 176.851562 C 63.761719 176.679688 63.339844 176.554688 62.902344 176.464844 C 62.46875 176.378906 62.03125 176.335938 61.585938 176.335938 Z M 183.085938 122.335938 C 182.644531 122.335938 182.203125 122.378906 181.769531 122.464844 C 181.335938 122.554688 180.914062 122.679688 180.503906 122.851562 C 180.09375 123.019531 179.707031 123.226562 179.335938 123.472656 C 178.96875 123.722656 178.628906 124 178.3125 124.3125 C 178 124.628906 177.722656 124.96875 177.472656 125.335938 C 177.226562 125.707031 177.019531 126.09375 176.851562 126.503906 C 176.679688 126.914062 176.554688 127.335938 176.464844 127.769531 C 176.378906 128.203125 176.335938 128.644531 176.335938 129.085938 L 176.335938 169.585938 C 176.335938 170.03125 176.292969 170.46875 176.207031 170.902344 C 176.121094 171.339844 175.992188 171.761719 175.824219 172.171875 C 175.652344 172.578125 175.445312 172.96875 175.199219 173.335938 C 174.953125 173.707031 174.671875 174.046875 174.359375 174.359375 C 174.046875 174.671875 173.707031 174.953125 173.335938 175.199219 C 172.96875 175.445312 172.578125 175.652344 172.171875 175.824219 C 171.761719 175.992188 171.339844 176.121094 170.902344 176.207031 C 170.46875 176.292969 170.03125 176.335938 169.585938 176.335938 L 135.835938 176.335938 C 135.394531 176.335938 134.953125 176.378906 134.519531 176.464844 C 134.085938 176.554688 133.664062 176.679688 133.253906 176.851562 C 132.84375 177.019531 132.457031 177.226562 132.085938 177.472656 C 131.71875 177.722656 131.378906 178 131.0625 178.3125 C 130.75 178.628906 130.472656 178.96875 130.222656 179.335938 C 129.976562 179.707031 129.769531 180.09375 129.601562 180.503906 C 129.429688 180.914062 129.304688 181.335938 129.214844 181.769531 C 129.128906 182.203125 129.085938 182.644531 129.085938 183.085938 C 129.085938 183.53125 129.128906 183.96875 129.214844 184.402344 C 129.304688 184.839844 129.429688 185.261719 129.601562 185.671875 C 129.769531 186.078125 129.976562 186.46875 130.222656 186.835938 C 130.472656 187.207031 130.75 187.546875 131.0625 187.859375 C 131.378906 188.171875 131.71875 188.453125 132.085938 188.699219 C 132.457031 188.945312 132.84375 189.152344 133.253906 189.324219 C 133.664062 189.492188 134.085938 189.621094 134.519531 189.707031 C 134.953125 189.792969 135.394531 189.835938 135.835938 189.835938 L 169.585938 189.835938 C 170.25 189.835938 170.910156 189.804688 171.570312 189.738281 C 172.230469 189.675781 172.886719 189.578125 173.539062 189.449219 C 174.1875 189.320312 174.832031 189.15625 175.464844 188.964844 C 176.101562 188.773438 176.722656 188.550781 177.335938 188.296875 C 177.949219 188.042969 178.546875 187.757812 179.132812 187.445312 C 179.71875 187.132812 180.285156 186.792969 180.835938 186.425781 C 181.390625 186.054688 181.921875 185.660156 182.433594 185.242188 C 182.945312 184.820312 183.4375 184.375 183.90625 183.90625 C 184.375 183.4375 184.820312 182.945312 185.242188 182.433594 C 185.660156 181.921875 186.054688 181.390625 186.425781 180.835938 C 186.792969 180.285156 187.132812 179.71875 187.445312 179.132812 C 187.757812 178.546875 188.042969 177.949219 188.296875 177.335938 C 188.550781 176.722656 188.773438 176.101562 188.964844 175.464844 C 189.15625 174.832031 189.320312 174.1875 189.449219 173.539062 C 189.578125 172.886719 189.675781 172.230469 189.738281 171.570312 C 189.804688 170.910156 189.835938 170.25 189.835938 169.585938 L 189.835938 129.085938 C 189.835938 128.644531 189.792969 128.203125 189.707031 127.769531 C 189.621094 127.335938 189.492188 126.914062 189.324219 126.503906 C 189.152344 126.09375 188.945312 125.707031 188.699219 125.335938 C 188.453125 124.96875 188.171875 124.628906 187.859375 124.3125 C 187.546875 124 187.207031 123.722656 186.835938 123.472656 C 186.46875 123.226562 186.078125 123.019531 185.671875 122.851562 C 185.261719 122.679688 184.839844 122.554688 184.402344 122.464844 C 183.96875 122.378906 183.53125 122.335938 183.085938 122.335938 Z M 183.085938 122.335938 " fill-opacity="1" fill-rule="nonzero"/></g></g></g></g><path fill="#d49a42" d="M 227.082031 165.390625 C 222.808594 161.792969 219.589844 161.550781 216.5625 165.390625 C 220.117188 170.09375 226.699219 169.085938 229.4375 165.34375 Z M 227.082031 165.390625 " fill-opacity="1" fill-rule="evenodd"/><path fill="#d49a42" d="M 220.742188 170.765625 C 216.226562 167.453125 213.011719 167.453125 210.222656 171.484375 C 214.113281 175.949219 220.550781 174.460938 223.046875 170.527344 L 220.695312 170.71875 Z M 220.742188 170.765625 " fill-opacity="1" fill-rule="evenodd"/><path fill="#d49a42" d="M 216.132812 177.484375 C 210.847656 175.660156 207.773438 176.621094 206.332031 181.320312 C 211.378906 184.390625 217.09375 181.082031 218.292969 176.570312 Z M 216.132812 177.484375 " fill-opacity="1" fill-rule="evenodd"/><path fill="#d49a42" d="M 213.875 185.257812 C 208.398438 184.105469 205.46875 185.449219 204.605469 190.246094 C 209.984375 192.695312 215.269531 188.710938 215.890625 184.105469 Z M 213.875 185.257812 " fill-opacity="1" fill-rule="evenodd"/><path fill="#d49a42" d="M 212.386719 194.851562 C 206.910156 193.699219 203.980469 195.042969 203.117188 199.84375 C 208.496094 202.289062 213.777344 198.308594 214.402344 193.699219 Z M 212.386719 194.851562 " fill-opacity="1" fill-rule="evenodd"/><path fill="#d49a42" d="M 210.222656 203.777344 C 204.652344 204.210938 202.203125 206.320312 202.730469 211.167969 C 208.589844 212.03125 212.53125 206.703125 211.859375 202.097656 Z M 210.222656 203.777344 " fill-opacity="1" fill-rule="evenodd"/><path fill="#d49a42" d="M 190.773438 202.144531 C 196.101562 203.777344 198.074219 206.320312 196.488281 210.976562 C 190.578125 210.542969 187.890625 204.546875 189.523438 200.179688 Z M 190.773438 202.144531 " fill-opacity="1" fill-rule="evenodd"/><path fill="#d49a42" d="M 192.40625 190.199219 C 197.496094 192.453125 199.128906 195.285156 196.96875 199.652344 C 191.15625 198.5 189.234375 192.164062 191.394531 188.039062 L 192.355469 190.152344 Z M 192.40625 190.199219 " fill-opacity="1" fill-rule="evenodd"/><path fill="#d49a42" d="M 195.480469 178.492188 C 200.328125 181.226562 201.675781 184.199219 199.128906 188.375 C 193.460938 186.648438 192.164062 180.171875 194.757812 176.285156 L 195.527344 178.492188 Z M 195.480469 178.492188 " fill-opacity="1" fill-rule="evenodd"/><path fill="#d49a42" d="M 200.234375 169.132812 C 204.507812 172.734375 205.277344 175.851562 202.011719 179.5 C 196.777344 176.761719 196.632812 170.140625 199.898438 166.832031 Z M 200.234375 169.132812 " fill-opacity="1" fill-rule="evenodd"/><path fill="#d49a42" d="M 208.015625 159.296875 C 210.898438 164.046875 210.609375 167.3125 206.332031 169.660156 C 202.25 165.390625 204.269531 159.105469 208.445312 156.996094 Z M 208.015625 159.296875 " fill-opacity="1" fill-rule="evenodd"/><path fill="#d49a42" d="M 218.582031 153.15625 C 219.636719 158.625 218.246094 161.550781 213.441406 162.320312 C 211.089844 156.898438 215.125 151.714844 219.78125 151.140625 Z M 218.582031 153.15625 " fill-opacity="1" fill-rule="evenodd"/><path fill="#d49a42" d="M 170.070312 180.121094 C 171.609375 175.804688 169.976562 172.925781 165.269531 171.4375 L 166.132812 172.78125 C 165.21875 176.957031 166.5625 179.402344 170.070312 180.121094 Z M 170.070312 180.121094 " fill-opacity="1" fill-rule="evenodd"/><path fill="#d49a42" d="M 175.257812 185.113281 C 178.09375 181.5625 177.5625 178.296875 173.578125 175.324219 L 173.960938 176.859375 C 171.75 180.503906 172.183594 183.242188 175.257812 185.113281 Z M 175.257812 185.113281 " fill-opacity="1" fill-rule="evenodd"/><path fill="#d49a42" d="M 179.050781 192.644531 C 182.605469 189.765625 182.75 186.457031 179.484375 182.761719 L 179.53125 184.34375 C 176.601562 187.414062 176.457031 190.199219 179.050781 192.695312 Z M 179.050781 192.644531 " fill-opacity="1" fill-rule="evenodd"/><path fill="#d49a42" d="M 180.828125 199.601562 C 184.960938 197.730469 185.96875 194.566406 183.757812 190.152344 L 183.375 191.6875 C 179.773438 193.941406 178.910156 196.582031 180.78125 199.601562 Z M 180.828125 199.601562 " fill-opacity="1" fill-rule="evenodd"/><path fill="#d49a42" d="M 182.414062 207.808594 C 186.785156 206.511719 188.179688 203.488281 186.640625 198.835938 L 186.066406 200.273438 C 182.175781 202.003906 180.972656 204.496094 182.414062 207.808594 Z M 182.414062 207.808594 " fill-opacity="1" fill-rule="evenodd"/><path fill="#d49a42" d="M 182.75 216.203125 C 187.265625 215.390625 188.996094 212.605469 187.9375 207.761719 L 187.21875 209.152344 C 183.183594 210.445312 181.695312 212.796875 182.75 216.203125 Z M 182.75 216.203125 " fill-opacity="1" fill-rule="evenodd"/><path fill="#d49a42" d="M 178.09375 216.011719 C 173.527344 216.445312 171.128906 214.191406 170.839844 209.246094 L 171.894531 210.398438 C 176.171875 210.542969 178.1875 212.414062 178.09375 216.011719 Z M 178.09375 216.011719 " fill-opacity="1" fill-rule="evenodd"/><path fill="#d49a42" d="M 177.753906 208.144531 C 173.386719 209.390625 170.550781 207.617188 169.398438 202.816406 L 170.648438 203.730469 C 174.875 203.105469 177.226562 204.546875 177.753906 208.144531 Z M 177.753906 208.144531 " fill-opacity="1" fill-rule="evenodd"/><path fill="#d49a42" d="M 176.9375 200.371094 C 172.710938 202.144531 169.734375 200.707031 168.003906 196.101562 L 169.351562 196.867188 C 173.433594 195.714844 175.976562 196.914062 176.9375 200.371094 Z M 176.9375 200.371094 " fill-opacity="1" fill-rule="evenodd"/><path fill="#d49a42" d="M 175.304688 194.035156 C 171.078125 195.8125 168.101562 194.371094 166.371094 189.765625 L 167.71875 190.535156 C 171.800781 189.382812 174.34375 190.582031 175.304688 194.035156 Z M 175.304688 194.035156 " fill-opacity="1" fill-rule="evenodd"/><path fill="#d49a42" d="M 172.566406 186.601562 C 169.253906 189.71875 165.941406 189.429688 162.675781 185.734375 L 164.210938 185.976562 C 167.667969 183.480469 170.40625 183.671875 172.519531 186.601562 Z M 172.566406 186.601562 " fill-opacity="1" fill-rule="evenodd"/><path fill="#d49a42" d="M 167.667969 181.945312 C 164.644531 185.351562 161.328125 185.398438 157.726562 182.042969 L 159.3125 182.136719 C 162.480469 179.304688 165.269531 179.257812 167.667969 181.945312 Z M 167.667969 181.945312 " fill-opacity="1" fill-rule="evenodd"/><path fill="#88c431" d="M 224.007812 174.507812 C 231.214844 186.9375 231.070312 202.339844 223.625 214.621094 L 232.367188 216.828125 C 234.527344 212.460938 235.96875 207.902344 236.785156 203.25 C 242.164062 203.875 249.753906 202.386719 259.503906 198.738281 C 249.898438 197.972656 242.550781 196.101562 237.503906 193.078125 C 237.3125 187.703125 236.304688 182.328125 234.382812 177.195312 C 241.109375 174.21875 247.207031 169.230469 252.636719 162.175781 C 248.3125 165.054688 241.539062 167.023438 232.367188 168.03125 C 229.292969 171.675781 228.714844 172.0625 224.007812 174.507812 Z M 224.007812 174.507812 " fill-opacity="1" fill-rule="evenodd"/><path fill="#88c431" d="M 159.359375 223.304688 C 145.765625 209.488281 143.796875 187.992188 154.558594 171.917969 C 165.363281 155.792969 185.96875 149.460938 203.933594 156.707031 C 206.574219 153.828125 208.6875 151.667969 210.273438 150.230469 C 206.09375 148.214844 201.820312 146.871094 197.398438 146.054688 C 197.449219 139.433594 195.765625 131.898438 192.453125 123.453125 C 191.394531 134.441406 189.714844 141.6875 187.410156 145.285156 C 182.03125 145.429688 176.746094 146.4375 171.703125 148.308594 C 167.574219 139.527344 162.625 133.484375 156.910156 130.125 C 162.289062 142.742188 164.308594 150.230469 162.867188 152.578125 C 158.542969 155.21875 154.558594 158.578125 151.148438 162.609375 C 143.894531 157.714844 136.59375 155.074219 129.148438 154.691406 C 137.890625 160.496094 143.316406 165.96875 145.335938 170.957031 C 142.789062 175.5625 141.058594 180.503906 140.097656 185.59375 C 131.070312 185.160156 123.625 186.40625 117.71875 189.429688 C 127.851562 190.4375 135.054688 192.40625 139.28125 195.285156 C 139.332031 200.324219 140.148438 205.359375 141.78125 210.207031 C 135.390625 213.757812 129.773438 218.890625 124.824219 225.5625 C 135.488281 220.859375 142.453125 218.699219 145.671875 219.035156 C 146.871094 221.195312 148.3125 223.304688 149.851562 225.273438 Z M 159.359375 223.304688 " fill-opacity="1" fill-rule="evenodd"/><g clip-path="url(#4f1783e37c)"><path fill="#d49a42" d="M 198.023438 219.179688 C 192.742188 220.042969 187.410156 221.292969 181.789062 222.585938 C 181.308594 196.773438 175.929688 182.714844 165.988281 178.828125 C 164.449219 174.316406 161.519531 172.589844 157.292969 173.644531 C 158.785156 177.386719 161.519531 179.304688 165.507812 179.5 C 179.003906 183.914062 179.726562 216.203125 179.101562 223.210938 C 161.472656 227.433594 141.109375 232.328125 112.722656 231.273438 C 185.007812 257.664062 190.050781 220.714844 262.722656 235.015625 C 237.648438 218.316406 219.78125 216.109375 201.484375 218.605469 C 200.472656 187.511719 206.476562 168.511719 219.496094 161.648438 C 224.394531 161.792969 228.09375 159.25 230.589844 154.066406 C 225.019531 152.820312 221.175781 155.074219 219.015625 160.832031 C 202.539062 169.039062 198.695312 187.65625 198.121094 219.132812 Z M 198.023438 219.179688 " fill-opacity="1" fill-rule="evenodd"/></g><path fill="#d49a42" d="M 250.953125 244.945312 C 214.308594 222.15625 200.667969 247.296875 154.652344 246.144531 C 200.089844 262.363281 210.222656 236.550781 250.953125 244.945312 Z M 250.953125 244.945312 " fill-opacity="1" fill-rule="evenodd"/></svg>