<svg width="300" height="300" viewBox="0 0 300 300" fill="none" xmlns="http://www.w3.org/2000/svg">
<mask id="mask0_13_1260" style="mask-type:luminance" maskUnits="userSpaceOnUse" x="61" y="67" width="179" height="71">
<path d="M61.05 67.2H239.2V137.5H61.05V67.2Z" fill="white"/>
</mask>
<g mask="url(#mask0_13_1260)">
<path d="M135.184 114.175C134.963 114.159 134.756 114.222 134.584 114.331C128.25 118.488 123.875 125.025 122.422 132.447C122.328 133 122.691 133.522 123.244 133.631C123.781 133.728 124.319 133.381 124.413 132.828C125.756 125.941 129.831 119.875 135.691 116.022C136.163 115.722 136.275 115.091 135.975 114.616C135.8 114.347 135.5 114.191 135.169 114.175H135.184ZM214.484 102.678C211.025 102.803 208.294 105.631 208.294 109.072C208.294 112.597 211.169 115.469 214.691 115.469C218.228 115.469 221.084 112.597 221.084 109.072C221.084 105.534 218.228 102.678 214.706 102.678C214.625 102.678 214.547 102.678 214.484 102.678ZM149.431 102.219C169.047 101.903 185.203 117.553 185.519 137.153C185.519 137.375 185.519 137.597 185.519 137.803C185.519 157.419 169.616 173.322 150.016 173.338C130.4 173.338 114.494 157.434 114.494 137.819C114.494 137.819 114.494 137.819 114.494 137.803C114.447 118.375 130.019 102.519 149.431 102.219ZM149.478 98.175C127.809 98.4594 110.403 116.134 110.45 137.803C110.45 159.659 128.172 177.366 150.016 177.35C171.856 177.35 189.547 159.644 189.563 137.803C189.609 115.959 171.938 98.2063 150.078 98.175C149.888 98.175 149.681 98.175 149.478 98.175ZM120.053 71.7531H179.944L194.206 89H230.863C233.091 89 234.906 90.8156 234.906 93.0438V190.947C234.906 193.175 233.091 194.991 230.863 194.991H69.1344C66.9094 194.991 65.0907 193.175 65.0907 190.947V93.0438C65.0907 90.8156 66.9094 89 69.1344 89H83.8063V82.0344H93.5219V89H105.791L120.053 71.7531ZM118.491 67.7094L104.228 84.9563H97.5625V77.9906H79.7625V84.9563H69.1344C64.6657 84.9563 61.05 88.5875 61.05 93.0438V190.947C61.05 195.419 64.6657 199.034 69.1344 199.034H230.863C235.331 199.034 238.95 195.419 238.95 190.947V93.0438C238.95 88.5875 235.331 84.9563 230.863 84.9563H195.784L181.506 67.7094H118.491Z" fill="#EFD71A"/>
</g>
<path fill-rule="evenodd" clip-rule="evenodd" d="M267.166 136.606V156.163L173.194 215.863C159.375 224.653 140.619 224.653 126.797 215.863L32.8281 156.116V136.559H38.3281V153.106L129.759 211.163C141.841 218.825 158.2 218.825 170.234 211.163C202.434 190.759 261.666 153.106 261.666 153.106V136.606H267.166ZM32.8281 88.0469V68.4906L35.3656 66.8938L126.797 8.79063C140.619 5.96046e-06 159.375 5.96046e-06 173.194 8.79063L267.166 68.4906V88.0469H261.666V71.5469C261.666 71.5469 202.434 33.9406 170.234 13.4906C158.153 5.82813 141.794 5.82813 129.759 13.4906L38.3281 71.5V88H32.8281V88.0469Z" fill="#005400"/>
<path fill-rule="evenodd" clip-rule="evenodd" d="M152.559 79.6781C126.375 79.35 100.613 67.1281 120.075 27.0312C121.484 38.4063 129.806 39.0625 137.703 43.1531C144.613 46.725 151.147 52.8844 152.369 71.0281C140.288 64.825 130.322 56.175 124.353 43.1531C128.913 64.2594 140.713 72.0156 152.559 79.6781ZM158.575 79.6781C177.284 79.4438 195.713 70.7 181.797 41.9781C180.809 50.1125 174.841 50.5813 169.2 53.4969C164.263 56.0344 159.609 60.4531 158.716 73.475C167.366 69.0094 174.463 62.85 178.788 53.4969C175.497 68.6781 167.038 74.225 158.575 79.6781Z" fill="#049B04"/>
<path fill-rule="evenodd" clip-rule="evenodd" d="M205.397 171.581L191.528 178.256L168.494 136.606H171.078L205.397 171.581Z" fill="#049B04"/>
<path fill-rule="evenodd" clip-rule="evenodd" d="M108.747 177.738L94.8782 171.253L128.913 136.606H131.45L108.747 177.738Z" fill="#049B04"/>
<path fill-rule="evenodd" clip-rule="evenodd" d="M185.934 180.934L156.459 195.084V136.606H161.444L185.934 180.934ZM143.484 193.956L114.341 180.325L138.503 136.559H143.484V193.956ZM231.769 158.888L211.319 168.713L179.775 136.559H190.259L231.769 158.888ZM88.9562 168.478L68.3187 158.841L109.734 136.559H120.262L88.9562 168.478Z" fill="#005400"/>
<path fill-rule="evenodd" clip-rule="evenodd" d="M203.281 136.606H239.381V155.222L238.631 155.597L203.281 136.606Z" fill="#049B04"/>
<path fill-rule="evenodd" clip-rule="evenodd" d="M96.7125 136.606L61.3625 155.597L60.6094 155.222V136.606H96.7125Z" fill="#049B04"/>
<path d="M51.8375 272.315C48.6781 272.315 45.6937 272.043 42.8875 271.502C40.0781 270.962 37.9187 270.346 36.4125 269.652V259.902H47.25C47.25 260.921 47.4781 261.658 47.9375 262.115C48.4031 262.574 49.2406 262.802 50.45 262.802C51.475 262.802 52.2062 262.649 52.65 262.34C53.0906 262.024 53.3125 261.558 53.3125 260.94C53.3125 260.415 53.1 259.965 52.675 259.59C52.25 259.208 51.5062 258.821 50.45 258.427L46.2125 256.94C42.5687 255.565 39.9531 253.94 38.3625 252.065C36.7687 250.19 35.975 247.662 35.975 244.477C35.975 240.602 37.2437 237.658 39.7875 235.64C42.3375 233.615 46.5812 232.602 52.525 232.602C55.3812 232.602 58.0656 232.89 60.575 233.465C63.0906 234.04 65.1187 234.802 66.6625 235.752V244.577H56.8125C56.8125 242.937 55.7937 242.115 53.7625 242.115C52.7687 242.115 52.0687 242.24 51.6625 242.49C51.2531 242.733 51.05 243.165 51.05 243.79C51.05 244.349 51.2875 244.796 51.7625 245.127C52.2375 245.452 53.0156 245.796 54.1 246.152L58.3875 247.627C61.8687 248.812 64.4062 250.349 66 252.24C67.5906 254.124 68.3875 256.596 68.3875 259.652C68.3875 263.827 66.9812 266.983 64.175 269.115C61.3656 271.249 57.2531 272.315 51.8375 272.315Z" fill="#049B04"/>
<path d="M106.918 263.552H109.38V271.627H95.9303L88.5428 256.352L86.2803 258.227V263.552H88.6428V271.627H70.0178V263.552H72.4803V241.377H70.0178V233.29H88.6428V241.377H86.2803V247.877L93.9178 241.377H90.8053V233.29H109.143V241.377H106.68L98.4428 248.177L106.918 263.552Z" fill="#049B04"/>
<path d="M147.569 263.552H149.544V271.627H130.231V263.552H133.181L132.394 259.602H125.694L124.906 263.552H127.856V271.627H111.006V263.552H112.981L121.306 233.29H139.244L147.569 263.552ZM126.781 254.377H131.306L129.294 244.577H128.794L126.781 254.377Z" fill="#049B04"/>
<path d="M179.74 233.29H195.903V241.377H193.44V271.627H179.603L165.165 249.402V263.552H167.528V271.627H151.365V263.552H153.828V241.377H151.365V233.29H169.153L182.115 253.052V241.377H179.74V233.29Z" fill="#049B04"/>
<path d="M198.026 271.627V263.552H200.488V241.377H198.026V233.29H216.751V241.377H214.288V263.552H216.751V271.627H198.026Z" fill="#049B04"/>
<path d="M247.341 233.29H263.504V241.377H261.041V271.627H247.204L232.766 249.402V263.552H235.129V271.627H218.966V263.552H221.429V241.377H218.966V233.29H236.754L249.716 253.052V241.377H247.341V233.29Z" fill="#049B04"/>
<path d="M107.358 290.04H112.57L109.958 285.09L107.358 290.04ZM103.845 293.665L109.133 283.978H110.87L116.245 293.665H114.47L113.233 291.278H106.67L105.433 293.665H103.845Z" fill="#998700"/>
<path d="M126.305 286.89H120.017V292.465H126.305V290.303H123.067V289.215H127.817V291.79C127.817 292.515 127.68 293.012 127.405 293.278C127.13 293.537 126.611 293.665 125.855 293.665H120.467C119.708 293.665 119.192 293.537 118.917 293.278C118.648 293.021 118.517 292.524 118.517 291.79V287.59C118.517 286.865 118.655 286.371 118.93 286.103C119.205 285.837 119.717 285.703 120.467 285.703H125.855C126.595 285.703 127.108 285.837 127.392 286.103C127.673 286.362 127.817 286.824 127.817 287.49V287.715L126.305 287.978V286.89Z" fill="#998700"/>
<path d="M136.882 286.878H132.645V289.44H136.882C137.214 289.44 137.439 289.387 137.557 289.278C137.673 289.171 137.732 288.953 137.732 288.628V287.678C137.732 287.387 137.67 287.184 137.545 287.065C137.42 286.94 137.198 286.878 136.882 286.878ZM131.132 293.665V285.703H137.532C138.123 285.703 138.548 285.824 138.807 286.065C139.073 286.309 139.207 286.703 139.207 287.253V289.028C139.207 289.562 139.073 289.949 138.807 290.19C138.548 290.434 138.123 290.553 137.532 290.553H136.482L139.995 293.665H137.982L134.82 290.553H132.645V293.665H131.132Z" fill="#998700"/>
<path d="M144.097 293.665H142.597V285.728H144.097V293.665Z" fill="#998700"/>
<path d="M156.677 285.29H149.827V288.003H155.927C156.793 288.003 157.383 288.162 157.702 288.478C158.018 288.796 158.177 289.396 158.177 290.278V291.378C158.177 292.271 158.018 292.874 157.702 293.19C157.393 293.509 156.802 293.665 155.927 293.665H150.277C149.393 293.665 148.793 293.509 148.477 293.19C148.158 292.865 148.002 292.262 148.002 291.378V291.103L149.502 290.765V292.315H156.715V289.403H150.627C149.752 289.403 149.155 289.246 148.84 288.928C148.53 288.603 148.377 287.999 148.377 287.115V286.265C148.377 285.384 148.53 284.784 148.84 284.465C149.155 284.14 149.752 283.978 150.627 283.978H155.79C156.655 283.978 157.252 284.137 157.577 284.453C157.902 284.762 158.065 285.312 158.065 286.103V286.303L156.677 286.703V285.29Z" fill="#998700"/>
<path d="M169.27 286.89H163.707V292.465H169.27V290.565L170.77 290.853V291.79C170.77 292.515 170.632 293.012 170.357 293.278C170.088 293.537 169.576 293.665 168.82 293.665H164.145C163.385 293.665 162.873 293.54 162.607 293.29C162.338 293.034 162.207 292.534 162.207 291.79V287.59C162.207 286.859 162.338 286.362 162.607 286.103C162.882 285.837 163.395 285.703 164.145 285.703H168.82C169.576 285.703 170.088 285.837 170.357 286.103C170.632 286.371 170.77 286.865 170.77 287.59V288.353L169.27 288.59V286.89Z" fill="#998700"/>
<path d="M172.661 293.665L177.261 285.703H178.636L183.348 293.665H181.723L180.686 291.803H175.186L174.173 293.665H172.661ZM175.823 290.653H180.048L177.923 286.878L175.823 290.653Z" fill="#998700"/>
<path d="M187.004 287.303C187.045 287.537 187.073 287.774 187.091 288.015C187.107 288.249 187.116 288.487 187.116 288.728V293.665H185.729V285.703H186.879L192.716 290.903C192.891 291.053 193.054 291.215 193.204 291.39C193.36 291.565 193.52 291.771 193.679 292.003C193.629 291.762 193.591 291.521 193.566 291.278C193.548 291.028 193.541 290.774 193.541 290.515V285.703H194.929V293.665H193.904L187.941 288.39C187.732 288.199 187.554 288.015 187.404 287.84C187.254 287.665 187.12 287.487 187.004 287.303Z" fill="#998700"/>
</svg>
