<svg xmlns="http://www.w3.org/2000/svg" xmlns:xlink="http://www.w3.org/1999/xlink" width="500" zoomAndPan="magnify" viewBox="0 0 375 374.999991" height="500" preserveAspectRatio="xMidYMid meet" version="1.0"><defs><clipPath id="28ca97f8e7"><path d="M 45.332031 116 L 329.582031 116 L 329.582031 227.074219 L 45.332031 227.074219 Z M 45.332031 116 " clip-rule="nonzero"/></clipPath></defs><g clip-path="url(#28ca97f8e7)"><path fill="#efd71a" d="M 163.820312 190.449219 C 163.464844 190.425781 163.136719 190.527344 162.859375 190.703125 C 152.738281 197.339844 145.746094 207.792969 143.421875 219.65625 C 143.269531 220.539062 143.851562 221.371094 144.734375 221.550781 C 145.59375 221.699219 146.453125 221.144531 146.601562 220.261719 C 148.75 209.257812 155.261719 199.5625 164.625 193.402344 C 165.382812 192.925781 165.558594 191.914062 165.082031 191.15625 C 164.804688 190.726562 164.324219 190.476562 163.792969 190.449219 Z M 290.5625 172.074219 C 285.035156 172.277344 280.667969 176.792969 280.667969 182.296875 C 280.667969 187.925781 285.261719 192.519531 290.890625 192.519531 C 296.542969 192.519531 301.113281 187.925781 301.113281 182.296875 C 301.113281 176.640625 296.542969 172.074219 290.914062 172.074219 C 290.789062 172.074219 290.664062 172.074219 290.5625 172.074219 Z M 186.585938 171.339844 C 217.9375 170.835938 243.761719 195.851562 244.265625 227.179688 C 244.265625 227.53125 244.265625 227.886719 244.265625 228.214844 C 244.265625 259.5625 218.847656 284.984375 187.519531 285.007812 C 156.171875 285.007812 130.75 259.589844 130.75 228.238281 C 130.75 228.238281 130.75 228.238281 130.75 228.214844 C 130.675781 197.164062 155.5625 171.820312 186.585938 171.339844 Z M 186.664062 164.878906 C 152.03125 165.332031 124.214844 193.582031 124.289062 228.214844 C 124.289062 263.148438 152.609375 291.445312 187.519531 291.421875 C 222.433594 291.421875 250.703125 263.125 250.730469 228.214844 C 250.804688 193.300781 222.558594 164.929688 187.621094 164.878906 C 187.320312 164.878906 186.992188 164.878906 186.664062 164.878906 Z M 139.636719 122.648438 L 235.355469 122.648438 L 258.148438 150.214844 L 316.738281 150.214844 C 320.296875 150.214844 323.199219 153.117188 323.199219 156.675781 L 323.199219 313.152344 C 323.199219 316.714844 320.296875 319.617188 316.738281 319.617188 L 58.253906 319.617188 C 54.695312 319.617188 51.792969 316.714844 51.792969 313.152344 L 51.792969 156.675781 C 51.792969 153.117188 54.695312 150.214844 58.253906 150.214844 L 81.703125 150.214844 L 81.703125 139.082031 L 97.230469 139.082031 L 97.230469 150.214844 L 116.84375 150.214844 Z M 137.136719 116.1875 L 114.34375 143.75 L 103.691406 143.75 L 103.691406 132.621094 L 75.242188 132.621094 L 75.242188 143.75 L 58.253906 143.75 C 51.109375 143.75 45.332031 149.558594 45.332031 156.675781 L 45.332031 313.152344 C 45.332031 320.296875 51.109375 326.078125 58.253906 326.078125 L 316.738281 326.078125 C 323.882812 326.078125 329.664062 320.296875 329.664062 313.152344 L 329.664062 156.675781 C 329.664062 149.558594 323.882812 143.75 316.738281 143.75 L 260.675781 143.75 L 237.855469 116.1875 L 137.136719 116.1875 " fill-opacity="1" fill-rule="nonzero"/></g><path fill="#005400" d="M 374.769531 226.304688 L 374.769531 257.5625 L 224.578125 352.980469 C 202.488281 367.03125 172.511719 367.03125 150.421875 352.980469 L 0.230469 257.488281 L 0.230469 226.230469 L 9.019531 226.230469 L 9.019531 252.679688 L 155.15625 345.46875 C 174.464844 357.714844 200.609375 357.714844 219.84375 345.46875 C 271.3125 312.859375 365.980469 252.679688 365.980469 252.679688 L 365.980469 226.304688 Z M 0.230469 148.695312 L 0.230469 117.4375 L 4.289062 114.882812 L 150.421875 22.019531 C 172.511719 7.96875 202.488281 7.96875 224.578125 22.019531 L 374.769531 117.4375 L 374.769531 148.695312 L 365.980469 148.695312 L 365.980469 122.320312 C 365.980469 122.320312 271.3125 62.214844 219.84375 29.53125 C 200.535156 17.285156 174.390625 17.285156 155.15625 29.53125 L 9.019531 122.246094 L 9.019531 148.617188 L 0.230469 148.617188 Z M 0.230469 148.695312 " fill-opacity="1" fill-rule="evenodd"/><path fill="#049b04" d="M 191.59375 135.320312 C 149.746094 134.792969 108.574219 115.257812 139.675781 51.171875 C 141.929688 69.351562 155.230469 70.40625 167.851562 76.941406 C 178.898438 82.652344 189.339844 92.492188 191.292969 121.496094 C 171.984375 111.578125 156.058594 97.753906 146.515625 76.941406 C 153.800781 110.675781 172.660156 123.074219 191.59375 135.320312 Z M 201.210938 135.320312 C 231.113281 134.945312 260.566406 120.96875 238.328125 75.0625 C 236.75 88.0625 227.207031 88.8125 218.191406 93.46875 C 210.304688 97.527344 202.863281 104.589844 201.4375 125.402344 C 215.261719 118.265625 226.605469 108.421875 233.519531 93.46875 C 228.261719 117.738281 214.734375 126.605469 201.210938 135.320312 Z M 201.210938 135.320312 " fill-opacity="1" fill-rule="evenodd"/><path fill="#049b04" d="M 276.042969 282.207031 L 253.878906 292.875 L 217.066406 226.304688 L 221.199219 226.304688 Z M 276.042969 282.207031 " fill-opacity="1" fill-rule="evenodd"/><path fill="#049b04" d="M 121.570312 292.046875 L 99.40625 281.679688 L 153.800781 226.304688 L 157.859375 226.304688 Z M 121.570312 292.046875 " fill-opacity="1" fill-rule="evenodd"/><path fill="#005400" d="M 244.941406 297.15625 L 197.832031 319.773438 L 197.832031 226.304688 L 205.796875 226.304688 Z M 177.09375 317.96875 L 130.511719 296.179688 L 169.128906 226.230469 L 177.09375 226.230469 Z M 318.195312 261.917969 L 285.511719 277.621094 L 235.097656 226.230469 L 251.851562 226.230469 Z M 89.9375 277.246094 L 56.957031 261.84375 L 123.148438 226.230469 L 139.976562 226.230469 Z M 89.9375 277.246094 " fill-opacity="1" fill-rule="evenodd"/><path fill="#049b04" d="M 272.664062 226.304688 L 330.367188 226.304688 L 330.367188 256.058594 L 329.164062 256.660156 Z M 272.664062 226.304688 " fill-opacity="1" fill-rule="evenodd"/><path fill="#049b04" d="M 102.335938 226.304688 L 45.835938 256.660156 L 44.632812 256.058594 L 44.632812 226.304688 Z M 102.335938 226.304688 " fill-opacity="1" fill-rule="evenodd"/></svg>